<svg width="38" height="40" viewBox="0 0 38 40" fill="none" xmlns="http://www.w3.org/2000/svg">
<path d="M15.4372 37.75H6.58301C5.43717 37.75 4.45662 37.3424 3.64134 36.5271C2.82467 35.7104 2.41634 34.7292 2.41634 33.5833V6.5H0.333008V2.33333H10.7497V0.25H23.2497V2.33333H33.6663V6.5H31.583V15.4583C30.9927 15.2847 30.3066 15.1368 29.5247 15.0146C28.7441 14.8937 28.0413 14.8333 27.4163 14.8333V6.5H6.58301V33.5833H13.458C13.6663 34.3125 13.9441 35.0333 14.2913 35.7458C14.6386 36.4569 15.0205 37.125 15.4372 37.75ZM10.7497 29.4167H12.833C12.833 27.2292 13.1802 25.4319 13.8747 24.025L14.9163 21.9167V10.6667H10.7497V29.4167ZM19.083 17.4375C19.6733 17.0556 20.342 16.6736 21.0893 16.2917C21.8351 15.9097 22.5552 15.6319 23.2497 15.4583V10.6667H19.083V17.4375ZM27.4163 39.8333C24.5344 39.8333 22.0781 38.8181 20.0476 36.7875C18.0156 34.7556 16.9997 32.2986 16.9997 29.4167C16.9997 26.5347 18.0156 24.0778 20.0476 22.0458C22.0781 20.0153 24.5344 19 27.4163 19C30.2983 19 32.7552 20.0153 34.7872 22.0458C36.8177 24.0778 37.833 26.5347 37.833 29.4167C37.833 32.2986 36.8177 34.7556 34.7872 36.7875C32.7552 38.8181 30.2983 39.8333 27.4163 39.8333ZM30.8538 34.3125L32.3122 32.8542L28.458 29V23.1667H26.3747V29.8333L30.8538 34.3125Z" fill="#F24E1E"/>
</svg>
