<svg width="12" height="12" viewBox="0 0 12 12" fill="none" xmlns="http://www.w3.org/2000/svg">
<path d="M11.748 10.5335C11.8279 10.6131 11.8912 10.7077 11.9345 10.8118C11.9777 10.916 12 11.0277 12 11.1404C12 11.2532 11.9777 11.3649 11.9345 11.469C11.8912 11.5732 11.8279 11.6678 11.748 11.7474C11.5863 11.907 11.3682 11.9964 11.1411 11.9964C10.9139 11.9964 10.6958 11.907 10.5341 11.7474L6 7.21324L1.46588 11.7474C1.30418 11.907 1.08614 11.9964 0.858946 11.9964C0.631756 11.9964 0.413708 11.907 0.252016 11.7474C0.172136 11.6678 0.108755 11.5732 0.0655083 11.469C0.0222618 11.3649 0 11.2532 0 11.1404C0 11.0277 0.0222618 10.916 0.0655083 10.8118C0.108755 10.7077 0.172136 10.6131 0.252016 10.5335L4.78614 5.99938L0.252016 1.46526C0.0910484 1.30429 0.000617492 1.08597 0.000617492 0.858329C0.000617492 0.745611 0.0228189 0.633998 0.065954 0.529861C0.109089 0.425723 0.172313 0.331102 0.252016 0.251399C0.331719 0.171696 0.426341 0.108472 0.530478 0.0653365C0.634615 0.0222014 0.746229 0 0.858946 0C1.08659 0 1.30491 0.0904309 1.46588 0.251399L6 4.78552L10.5341 0.251399C10.6951 0.0904309 10.9134 0 11.1411 0C11.3687 0 11.587 0.0904309 11.748 0.251399C11.909 0.412367 11.9994 0.630686 11.9994 0.858329C11.9994 1.08597 11.909 1.30429 11.748 1.46526L7.21386 5.99938L11.748 10.5335Z" fill="#777777"/>
</svg>
